<svg width="57" height="32" viewBox="0 0 57 32" fill="none" xmlns="http://www.w3.org/2000/svg">
<path fill-rule="evenodd" clip-rule="evenodd" d="M38.475 1.45455C38.475 1.06878 38.6251 0.698807 38.8924 0.426027C39.1596 0.153247 39.5221 0 39.9 0H45.6C45.9779 0 46.3404 0.153247 46.6076 0.426027C46.8749 0.698807 47.025 1.06878 47.025 1.45455V4.36364H51.3C51.6779 4.36364 52.0404 4.51688 52.3076 4.78966C52.5749 5.06244 52.725 5.43241 52.725 5.81818V14.5455H57V17.4545H52.725V26.1818C52.725 26.5676 52.5749 26.9376 52.3076 27.2103C52.0404 27.4831 51.6779 27.6364 51.3 27.6364H47.025V30.5455C47.025 30.9312 46.8749 31.3012 46.6076 31.574C46.3404 31.8468 45.9779 32 45.6 32H39.9C39.5221 32 39.1596 31.8468 38.8924 31.574C38.6251 31.3012 38.475 30.9312 38.475 30.5455V17.4545H18.525V30.5455C18.525 30.9312 18.3749 31.3012 18.1076 31.574C17.8404 31.8468 17.4779 32 17.1 32H11.4C11.0221 32 10.6596 31.8468 10.3924 31.574C10.1251 31.3012 9.975 30.9312 9.975 30.5455V27.6364H5.7C5.32207 27.6364 4.95961 27.4831 4.69237 27.2103C4.42513 26.9376 4.275 26.5676 4.275 26.1818V17.4545H0V14.5455H4.275V5.81818C4.275 5.43241 4.42513 5.06244 4.69237 4.78966C4.95961 4.51688 5.32207 4.36364 5.7 4.36364H9.975V1.45455C9.975 1.06878 10.1251 0.698807 10.3924 0.426027C10.6596 0.153247 11.0221 0 11.4 0H17.1C17.4779 0 17.8404 0.153247 18.1076 0.426027C18.3749 0.698807 18.525 1.06878 18.525 1.45455V14.5455H38.475V1.45455ZM12.825 29.0909H15.675V2.90909H12.825V29.0909ZM9.975 7.27273H7.125V24.7273H9.975V7.27273ZM47.025 24.7273V7.27273H49.875V24.7273H47.025ZM44.175 2.90909V29.0909H41.325V2.90909H44.175Z" fill="#1480EC"/>
</svg>
