<svg width="156" height="158" viewBox="0 0 156 158" fill="none" xmlns="http://www.w3.org/2000/svg">
<circle cx="2.5" cy="2.5" r="2.5" fill="#1480EC"/>
<circle cx="2.5" cy="70.5" r="2.5" fill="#1480EC"/>
<circle cx="2.5" cy="36.5" r="2.5" fill="#1480EC"/>
<circle cx="2.5" cy="104.5" r="2.5" fill="#1480EC"/>
<circle cx="2.5" cy="138.5" r="2.5" fill="#1480EC"/>
<circle cx="2.5" cy="19.5" r="2.5" fill="#1480EC"/>
<circle cx="2.5" cy="87.5" r="2.5" fill="#1480EC"/>
<circle cx="2.5" cy="53.5" r="2.5" fill="#1480EC"/>
<circle cx="2.5" cy="121.5" r="2.5" fill="#1480EC"/>
<circle cx="2.5" cy="155.5" r="2.5" fill="#1480EC"/>
<circle cx="86.5" cy="2.5" r="2.5" fill="#1480EC"/>
<circle cx="86.5" cy="70.5" r="2.5" fill="#1480EC"/>
<circle cx="86.5" cy="36.5" r="2.5" fill="#1480EC"/>
<circle cx="86.5" cy="104.5" r="2.5" fill="#1480EC"/>
<circle cx="86.5" cy="138.5" r="2.5" fill="#1480EC"/>
<circle cx="86.5" cy="19.5" r="2.5" fill="#1480EC"/>
<circle cx="86.5" cy="87.5" r="2.5" fill="#1480EC"/>
<circle cx="86.5" cy="53.5" r="2.5" fill="#1480EC"/>
<circle cx="86.5" cy="121.5" r="2.5" fill="#1480EC"/>
<circle cx="86.5" cy="155.5" r="2.5" fill="#1480EC"/>
<circle cx="18.5" cy="2.5" r="2.5" fill="#1480EC"/>
<circle cx="18.5" cy="70.5" r="2.5" fill="#1480EC"/>
<circle cx="18.5" cy="36.5" r="2.5" fill="#1480EC"/>
<circle cx="18.5" cy="104.5" r="2.5" fill="#1480EC"/>
<circle cx="18.5" cy="138.5" r="2.5" fill="#1480EC"/>
<circle cx="18.5" cy="19.5" r="2.5" fill="#1480EC"/>
<circle cx="18.5" cy="87.5" r="2.5" fill="#1480EC"/>
<circle cx="18.5" cy="53.5" r="2.5" fill="#1480EC"/>
<circle cx="18.5" cy="121.5" r="2.5" fill="#1480EC"/>
<circle cx="18.5" cy="155.5" r="2.5" fill="#1480EC"/>
<circle cx="103.5" cy="2.5" r="2.5" fill="#1480EC"/>
<circle cx="103.5" cy="70.5" r="2.5" fill="#1480EC"/>
<circle cx="103.5" cy="36.5" r="2.5" fill="#1480EC"/>
<circle cx="103.5" cy="104.5" r="2.5" fill="#1480EC"/>
<circle cx="103.5" cy="138.5" r="2.5" fill="#1480EC"/>
<circle cx="103.5" cy="19.5" r="2.5" fill="#1480EC"/>
<circle cx="103.5" cy="87.5" r="2.5" fill="#1480EC"/>
<circle cx="103.5" cy="53.5" r="2.5" fill="#1480EC"/>
<circle cx="103.5" cy="121.5" r="2.5" fill="#1480EC"/>
<circle cx="103.5" cy="155.5" r="2.5" fill="#1480EC"/>
<circle cx="35.5" cy="2.5" r="2.5" fill="#1480EC"/>
<circle cx="35.5" cy="70.5" r="2.5" fill="#1480EC"/>
<circle cx="35.5" cy="36.5" r="2.5" fill="#1480EC"/>
<circle cx="35.5" cy="104.5" r="2.5" fill="#1480EC"/>
<circle cx="35.5" cy="138.5" r="2.5" fill="#1480EC"/>
<circle cx="35.5" cy="19.5" r="2.5" fill="#1480EC"/>
<circle cx="35.5" cy="87.5" r="2.5" fill="#1480EC"/>
<circle cx="35.5" cy="53.5" r="2.5" fill="#1480EC"/>
<circle cx="35.5" cy="121.5" r="2.5" fill="#1480EC"/>
<circle cx="35.5" cy="155.5" r="2.5" fill="#1480EC"/>
<circle cx="119.5" cy="2.5" r="2.5" fill="#1480EC"/>
<circle cx="119.5" cy="70.5" r="2.5" fill="#1480EC"/>
<circle cx="119.5" cy="36.5" r="2.5" fill="#1480EC"/>
<circle cx="119.5" cy="104.5" r="2.5" fill="#1480EC"/>
<circle cx="119.5" cy="138.5" r="2.5" fill="#1480EC"/>
<circle cx="119.5" cy="19.5" r="2.5" fill="#1480EC"/>
<circle cx="119.5" cy="87.5" r="2.5" fill="#1480EC"/>
<circle cx="119.5" cy="53.5" r="2.5" fill="#1480EC"/>
<circle cx="119.5" cy="121.5" r="2.5" fill="#1480EC"/>
<circle cx="119.5" cy="155.5" r="2.5" fill="#1480EC"/>
<circle cx="52.5" cy="2.5" r="2.5" fill="#1480EC"/>
<circle cx="52.5" cy="70.5" r="2.5" fill="#1480EC"/>
<circle cx="52.5" cy="36.5" r="2.5" fill="#1480EC"/>
<circle cx="52.5" cy="104.5" r="2.5" fill="#1480EC"/>
<circle cx="52.5" cy="138.5" r="2.5" fill="#1480EC"/>
<circle cx="52.5" cy="19.5" r="2.5" fill="#1480EC"/>
<circle cx="52.5" cy="87.5" r="2.5" fill="#1480EC"/>
<circle cx="52.5" cy="53.5" r="2.5" fill="#1480EC"/>
<circle cx="52.5" cy="121.5" r="2.5" fill="#1480EC"/>
<circle cx="52.5" cy="155.5" r="2.5" fill="#1480EC"/>
<circle cx="136.5" cy="2.5" r="2.5" fill="#1480EC"/>
<circle cx="136.5" cy="70.5" r="2.5" fill="#1480EC"/>
<circle cx="136.5" cy="36.5" r="2.5" fill="#1480EC"/>
<circle cx="136.5" cy="104.5" r="2.5" fill="#1480EC"/>
<circle cx="136.5" cy="138.5" r="2.5" fill="#1480EC"/>
<circle cx="136.5" cy="19.5" r="2.5" fill="#1480EC"/>
<circle cx="136.5" cy="87.5" r="2.5" fill="#1480EC"/>
<circle cx="136.5" cy="53.5" r="2.5" fill="#1480EC"/>
<circle cx="136.5" cy="121.5" r="2.5" fill="#1480EC"/>
<circle cx="136.5" cy="155.5" r="2.5" fill="#1480EC"/>
<circle cx="69.5" cy="2.5" r="2.5" fill="#1480EC"/>
<circle cx="69.5" cy="70.5" r="2.5" fill="#1480EC"/>
<circle cx="69.5" cy="36.5" r="2.5" fill="#1480EC"/>
<circle cx="69.5" cy="104.5" r="2.5" fill="#1480EC"/>
<circle cx="69.5" cy="138.5" r="2.5" fill="#1480EC"/>
<circle cx="69.5" cy="19.5" r="2.5" fill="#1480EC"/>
<circle cx="69.5" cy="87.5" r="2.5" fill="#1480EC"/>
<circle cx="69.5" cy="53.5" r="2.5" fill="#1480EC"/>
<circle cx="69.5" cy="121.5" r="2.5" fill="#1480EC"/>
<circle cx="69.5" cy="155.5" r="2.5" fill="#1480EC"/>
<circle cx="153.5" cy="2.5" r="2.5" fill="#1480EC"/>
<circle cx="153.5" cy="70.5" r="2.5" fill="#1480EC"/>
<circle cx="153.5" cy="36.5" r="2.5" fill="#1480EC"/>
<circle cx="153.5" cy="104.5" r="2.5" fill="#1480EC"/>
<circle cx="153.5" cy="138.5" r="2.5" fill="#1480EC"/>
<circle cx="153.5" cy="19.5" r="2.5" fill="#1480EC"/>
<circle cx="153.5" cy="87.5" r="2.5" fill="#1480EC"/>
<circle cx="153.5" cy="53.5" r="2.5" fill="#1480EC"/>
<circle cx="153.5" cy="121.5" r="2.5" fill="#1480EC"/>
<circle cx="153.5" cy="155.5" r="2.5" fill="#1480EC"/>
</svg>
