<svg width="70" height="64" viewBox="0 0 70 64" fill="none" xmlns="http://www.w3.org/2000/svg">
<path d="M52.0421 43.2C52.0421 46.752 49.235 49.6 45.734 49.6C42.233 49.6 39.4258 46.752 39.4258 43.2C39.4258 39.648 42.2645 36.8 45.734 36.8C49.2034 36.8 52.0421 39.68 52.0421 43.2ZM23.6555 36.8C20.186 36.8 17.3474 39.68 17.3474 43.2C17.3474 46.72 20.186 49.6 23.6555 49.6C27.125 49.6 29.9636 46.752 29.9636 43.2C29.9636 39.648 27.1565 36.8 23.6555 36.8ZM69.3895 41.6V51.2C69.3895 52.96 67.9701 54.4 66.2354 54.4H63.0813V57.6C63.0813 61.152 60.2742 64 56.7732 64H12.6163C10.9432 64 9.33875 63.3257 8.15574 62.1255C6.97274 60.9252 6.30813 59.2974 6.30813 57.6V54.4H3.15407C1.41933 54.4 0 52.96 0 51.2V41.6C0 39.84 1.41933 38.4 3.15407 38.4H6.30813C6.30813 26.016 16.1804 16 28.3866 16H31.5407V11.936C29.6482 10.848 28.3866 8.768 28.3866 6.4C28.3866 2.88 31.2253 0 34.6947 0C38.1642 0 41.0029 2.88 41.0029 6.4C41.0029 8.768 39.7412 10.848 37.8488 11.936V16H41.0029C53.2091 16 63.0813 26.016 63.0813 38.4H66.2354C67.9701 38.4 69.3895 39.84 69.3895 41.6ZM63.0813 44.8H56.7732V38.4C56.7732 29.568 49.7081 22.4 41.0029 22.4H28.3866C19.6814 22.4 12.6163 29.568 12.6163 38.4V44.8H6.30813V48H12.6163V57.6H56.7732V48H63.0813V44.8Z" fill="#1480EC" fill-opacity="0.7"/>
</svg>
