<svg width="31" height="31" viewBox="0 0 31 31" fill="none" xmlns="http://www.w3.org/2000/svg">
<path d="M10.9637 13.2301C12.5797 16.0692 14.9308 18.4203 17.7699 20.0363L19.2923 17.9042C19.5372 17.5614 19.8992 17.3202 20.3098 17.2262C20.7205 17.1323 21.1514 17.1921 21.5209 17.3944C23.9566 18.7256 26.6466 19.5262 29.4138 19.7436C29.8457 19.7778 30.2489 19.9735 30.5428 20.2918C30.8368 20.61 31.0001 21.0274 31 21.4606V29.1452C31.0001 29.5716 30.842 29.9829 30.5563 30.2994C30.2706 30.616 29.8776 30.8153 29.4534 30.8588C28.5368 30.9534 27.6159 31.0005 26.6944 31C11.9522 31 0 19.0478 0 4.30556C0 3.379 0.0465 2.45933 0.141222 1.54656C0.184716 1.12237 0.384029 0.729397 0.700582 0.443703C1.01714 0.158009 1.42842 -9.18939e-05 1.85483 4.00714e-08H9.53939C9.97264 -5.42819e-05 10.39 0.163183 10.7082 0.457165C11.0265 0.751147 11.2222 1.15427 11.2564 1.58617C11.4738 4.35343 12.2744 7.04336 13.6056 9.47911C13.8079 9.84864 13.8677 10.2795 13.7738 10.6902C13.6798 11.1008 13.4386 11.4628 13.0958 11.7077L10.9637 13.2301ZM6.62022 12.0986L9.89245 9.76155C8.96379 7.75705 8.32755 5.62967 8.00317 3.44444H3.46167C3.45133 3.73033 3.44617 4.01794 3.44617 4.30556C3.44444 17.1464 13.8536 27.5556 26.6944 27.5556C26.9821 27.5556 27.2697 27.5504 27.5556 27.5383V22.9968C25.3703 22.6724 23.2429 22.0362 21.2384 21.1076L18.9014 24.3798C17.9605 24.0141 17.0466 23.5825 16.1665 23.0881L16.0666 23.0313C12.6886 21.1088 9.8912 18.3114 7.96872 14.9334L7.91189 14.8335C7.41745 13.9534 6.98582 13.0395 6.62022 12.0986Z" fill="#1E71FF"/>
</svg>
