<svg width="55" height="44" viewBox="0 0 55 44" fill="none" xmlns="http://www.w3.org/2000/svg">
<path d="M10.7397 43.6292V38.5168H14.6554L19.4887 21.7096C19.815 20.6019 20.417 19.7174 21.2948 19.0562C22.1725 18.395 23.1408 18.0652 24.1997 18.0669H31.5415C32.602 18.0669 33.5711 18.3975 34.4488 19.0588C35.3266 19.72 35.9278 20.6036 36.2525 21.7096L41.0858 38.5168H45.0014V43.6292H10.7397ZM19.7946 38.5168H35.9465L31.5415 23.1794H24.1997L19.7946 38.5168ZM25.4233 12.9545V0.17334H30.3178V12.9545H25.4233ZM39.9845 19.2811L36.4972 15.6385L45.185 6.62782L48.6111 10.2065L39.9845 19.2811ZM42.5542 30.8481V25.7356H54.7905V30.8481H42.5542ZM15.7566 19.2811L7.13002 10.2065L10.5562 6.62782L19.244 15.6385L15.7566 19.2811ZM0.950684 30.8481V25.7356H13.187V30.8481H0.950684Z" fill="#EF0505"/>
</svg>
