<svg width="65" height="65" viewBox="0 0 65 65" fill="none" xmlns="http://www.w3.org/2000/svg">
<path d="M21.6667 25.729C20.7688 25.729 19.9077 26.0857 19.2728 26.7206C18.6379 27.3555 18.2812 28.2166 18.2812 29.1144C18.2812 30.0123 18.6379 30.8734 19.2728 31.5083C19.9077 32.1432 20.7688 32.4998 21.6667 32.4998C22.5645 32.4998 23.4256 32.1432 24.0605 31.5083C24.6954 30.8734 25.0521 30.0123 25.0521 29.1144C25.0521 28.2166 24.6954 27.3555 24.0605 26.7206C23.4256 26.0857 22.5645 25.729 21.6667 25.729ZM32.5 25.729C31.6021 25.729 30.741 26.0857 30.1061 26.7206C29.4713 27.3555 29.1146 28.2166 29.1146 29.1144C29.1146 30.0123 29.4713 30.8734 30.1061 31.5083C30.741 32.1432 31.6021 32.4998 32.5 32.4998C33.3979 32.4998 34.259 32.1432 34.8939 31.5083C35.5287 30.8734 35.8854 30.0123 35.8854 29.1144C35.8854 28.2166 35.5287 27.3555 34.8939 26.7206C34.259 26.0857 33.3979 25.729 32.5 25.729ZM39.9479 29.1144C39.9479 28.2166 40.3046 27.3555 40.9395 26.7206C41.5744 26.0857 42.4355 25.729 43.3333 25.729C44.2312 25.729 45.0923 26.0857 45.7272 26.7206C46.3621 27.3555 46.7188 28.2166 46.7188 29.1144C46.7188 30.0123 46.3621 30.8734 45.7272 31.5083C45.0923 32.1432 44.2312 32.4998 43.3333 32.4998C42.4355 32.4998 41.5744 32.1432 40.9395 31.5083C40.3046 30.8734 39.9479 30.0123 39.9479 29.1144Z" fill="#1E71FF"/>
<path fill-rule="evenodd" clip-rule="evenodd" d="M43.6042 12.4393C36.3082 11.8171 28.974 11.7809 21.6721 12.331L21.1494 12.3716C17.7922 12.625 14.6546 14.1373 12.365 16.6057C10.0754 19.0741 8.80282 22.3163 8.80212 25.6831V48.75C8.80243 49.1011 8.89377 49.4462 9.06722 49.7515C9.24068 50.0568 9.49032 50.312 9.79179 50.492C10.0933 50.6721 10.4363 50.7709 10.7873 50.7789C11.1384 50.7869 11.4855 50.7037 11.7948 50.5375L22.3844 44.8473C22.8781 44.5819 23.43 44.4432 23.9905 44.4437H48.3005C51.3663 44.4437 53.9934 42.25 54.5432 39.2356C55.659 33.1229 55.7457 26.8666 54.8032 20.7241L54.5269 18.9123C54.2812 17.3111 53.5042 15.8391 52.3209 14.7329C51.1375 13.6267 49.6166 12.9505 48.0025 12.8131L43.6042 12.4393ZM21.9809 16.3827C29.0663 15.8481 36.1831 15.8825 43.263 16.4856L47.6613 16.8621C49.113 16.9866 50.2938 18.0889 50.5132 19.5298L50.7921 21.3389C51.6645 27.0355 51.5821 32.8376 50.5484 38.5071C50.4526 39.0328 50.1755 39.5084 49.7653 39.8508C49.355 40.1933 48.8376 40.381 48.3032 40.3812H23.9905C22.7597 40.3814 21.5482 40.6866 20.4642 41.2696L12.8646 45.3537V25.6804C12.8648 23.3382 13.7497 21.0824 15.3422 19.3649C16.9347 17.6473 19.1172 16.5947 21.4528 16.4179L21.9782 16.38L21.9809 16.3827Z" fill="#1E71FF"/>
</svg>
