<svg width="45" height="22" viewBox="0 0 45 22" fill="none" xmlns="http://www.w3.org/2000/svg">
<path fill-rule="evenodd" clip-rule="evenodd" d="M30.375 1C30.375 0.734784 30.4935 0.48043 30.7045 0.292893C30.9155 0.105357 31.2016 0 31.5 0H36C36.2984 0 36.5845 0.105357 36.7955 0.292893C37.0065 0.48043 37.125 0.734784 37.125 1V3H40.5C40.7984 3 41.0845 3.10536 41.2955 3.29289C41.5065 3.48043 41.625 3.73478 41.625 4V10H45V12H41.625V18C41.625 18.2652 41.5065 18.5196 41.2955 18.7071C41.0845 18.8946 40.7984 19 40.5 19H37.125V21C37.125 21.2652 37.0065 21.5196 36.7955 21.7071C36.5845 21.8946 36.2984 22 36 22H31.5C31.2016 22 30.9155 21.8946 30.7045 21.7071C30.4935 21.5196 30.375 21.2652 30.375 21V12H14.625V21C14.625 21.2652 14.5065 21.5196 14.2955 21.7071C14.0845 21.8946 13.7984 22 13.5 22H9C8.70163 22 8.41548 21.8946 8.2045 21.7071C7.99353 21.5196 7.875 21.2652 7.875 21V19H4.5C4.20163 19 3.91548 18.8946 3.7045 18.7071C3.49353 18.5196 3.375 18.2652 3.375 18V12H0V10H3.375V4C3.375 3.73478 3.49353 3.48043 3.7045 3.29289C3.91548 3.10536 4.20163 3 4.5 3H7.875V1C7.875 0.734784 7.99353 0.48043 8.2045 0.292893C8.41548 0.105357 8.70163 0 9 0H13.5C13.7984 0 14.0845 0.105357 14.2955 0.292893C14.5065 0.48043 14.625 0.734784 14.625 1V10H30.375V1ZM10.125 20H12.375V2H10.125V20ZM7.875 5H5.625V17H7.875V5ZM37.125 17V5H39.375V17H37.125ZM34.875 2V20H32.625V2H34.875Z" fill="#FFF7F7"/>
</svg>
