<svg width="39" height="45" viewBox="0 0 39 45" fill="none" xmlns="http://www.w3.org/2000/svg">
<path d="M19.4657 14.4641C29.2371 14.4641 37.1442 20.8926 37.1442 30.5355V43.3926H1.78711V30.5355C1.78711 20.8926 9.69425 14.4641 19.4657 14.4641ZM19.4657 14.4641V1.60693M1.78711 33.7498H37.1442M13.0371 33.7498V43.3926M25.8942 33.7498V43.3926" stroke="#F7FAFF" stroke-width="2" stroke-linecap="round" stroke-linejoin="round"/>
<path d="M13.0373 27.3212C13.9249 27.3212 14.6445 26.6017 14.6445 25.7141C14.6445 24.8265 13.9249 24.1069 13.0373 24.1069C12.1497 24.1069 11.4302 24.8265 11.4302 25.7141C11.4302 26.6017 12.1497 27.3212 13.0373 27.3212Z" stroke="#F7FAFF" stroke-width="2" stroke-linecap="round" stroke-linejoin="round"/>
<path d="M25.8943 27.3212C26.7819 27.3212 27.5014 26.6017 27.5014 25.7141C27.5014 24.8265 26.7819 24.1069 25.8943 24.1069C25.0067 24.1069 24.2871 24.8265 24.2871 25.7141C24.2871 26.6017 25.0067 27.3212 25.8943 27.3212Z" stroke="#F7FAFF" stroke-width="2" stroke-linecap="round" stroke-linejoin="round"/>
</svg>
