<svg width="36" height="36" viewBox="0 0 36 36" fill="none" xmlns="http://www.w3.org/2000/svg">
<path d="M2.13333 12.3333H33.8667M2.13333 23.6667H33.8667M1 18C1 20.2325 1.43972 22.4431 2.29405 24.5056C3.14838 26.5682 4.40059 28.4422 5.97918 30.0208C7.55778 31.5994 9.43185 32.8516 11.4944 33.706C13.5569 34.5603 15.7675 35 18 35C20.2325 35 22.4431 34.5603 24.5056 33.706C26.5682 32.8516 28.4422 31.5994 30.0208 30.0208C31.5994 28.4422 32.8516 26.5682 33.706 24.5056C34.5603 22.4431 35 20.2325 35 18C35 13.4913 33.2089 9.1673 30.0208 5.97918C26.8327 2.79107 22.5087 1 18 1C13.4913 1 9.1673 2.79107 5.97918 5.97918C2.79107 9.1673 1 13.4913 1 18Z" stroke="white" stroke-width="2" stroke-linecap="round" stroke-linejoin="round"/>
<path d="M17.0552 1C13.8731 6.09927 12.186 11.9893 12.186 18C12.186 24.0107 13.8731 29.9007 17.0552 35M18.9441 1C22.1262 6.09927 23.8133 11.9893 23.8133 18C23.8133 24.0107 22.1262 29.9007 18.9441 35" stroke="white" stroke-width="2" stroke-linecap="round" stroke-linejoin="round"/>
</svg>
