<svg width="61" height="61" viewBox="0 0 61 61" fill="none" xmlns="http://www.w3.org/2000/svg">
<path d="M3.9 21H57.1M3.9 40H57.1M2 30.5C2 34.2427 2.73717 37.9487 4.16943 41.4065C5.60169 44.8643 7.70099 48.0061 10.3475 50.6525C12.9939 53.299 16.1357 55.3983 19.5935 56.8306C23.0513 58.2628 26.7573 59 30.5 59C34.2427 59 37.9487 58.2628 41.4065 56.8306C44.8643 55.3983 48.0061 53.299 50.6525 50.6525C53.299 48.0061 55.3983 44.8643 56.8306 41.4065C58.2628 37.9487 59 34.2427 59 30.5C59 22.9413 55.9973 15.6922 50.6525 10.3475C45.3078 5.00267 38.0587 2 30.5 2C22.9413 2 15.6922 5.00267 10.3475 10.3475C5.00267 15.6922 2 22.9413 2 30.5Z" stroke="#1480EC" stroke-opacity="0.7" stroke-width="3" stroke-linecap="round" stroke-linejoin="round"/>
<path d="M28.9159 2C23.5812 10.5488 20.7529 20.4232 20.7529 30.5C20.7529 40.5768 23.5812 50.4512 28.9159 59M32.0826 2C37.4174 10.5488 40.2456 20.4232 40.2456 30.5C40.2456 40.5768 37.4174 50.4512 32.0826 59" stroke="#1480EC" stroke-opacity="0.7" stroke-width="3" stroke-linecap="round" stroke-linejoin="round"/>
</svg>
