<svg width="25" height="20" viewBox="0 0 25 20" fill="none" xmlns="http://www.w3.org/2000/svg">
<path d="M4.54545 20V17.6471H6.36364L8.60795 9.91177C8.75947 9.40196 9.03901 8.9949 9.44659 8.69059C9.85417 8.38628 10.3038 8.23451 10.7955 8.23529H14.2045C14.697 8.23529 15.147 8.38745 15.5545 8.69176C15.9621 8.99608 16.2413 9.40275 16.392 9.91177L18.6364 17.6471H20.4545V20H4.54545ZM8.75 17.6471H16.25L14.2045 10.5882H10.7955L8.75 17.6471ZM11.3636 5.88235V0H13.6364V5.88235H11.3636ZM18.125 8.79412L16.5057 7.11765L20.5398 2.97059L22.1307 4.61765L18.125 8.79412ZM19.3182 14.1176V11.7647H25V14.1176H19.3182ZM6.875 8.79412L2.86932 4.61765L4.46023 2.97059L8.49432 7.11765L6.875 8.79412ZM0 14.1176V11.7647H5.68182V14.1176H0Z" fill="#EF0505"/>
</svg>
