<svg width="128" height="128" viewBox="0 0 128 128" fill="none" xmlns="http://www.w3.org/2000/svg">
<circle cx="64" cy="64" r="64" fill="#E1F1FF"/>
<path d="M64 89.8335C63.2612 89.8335 62.5585 89.5183 62.0677 88.9655C47.3427 72.4011 47.3427 55.5991 62.0677 39.0348C63.0442 37.9291 64.9507 37.9291 65.9272 39.0348C80.6522 55.5991 80.6522 72.4011 65.9272 88.9655C65.4415 89.5183 64.7388 89.8335 64 89.8335ZM64 44.7543C53.6925 57.6813 53.6925 70.3138 64 83.2408C74.3075 70.319 74.3075 57.6813 64 44.7543Z" fill="#4361AF"/>
<path d="M63.8501 89.8331C63.7726 89.8331 63.6951 89.8331 63.6176 89.8228C42.8631 87.9421 31.698 76.1414 30.427 54.7514C30.3805 54.0126 30.6543 53.2944 31.1813 52.7726C31.698 52.2508 32.4523 52.0028 33.155 52.0183C42.3413 52.5659 49.8175 54.9633 55.3768 59.1431C56.5186 60.0008 56.746 61.6179 55.8883 62.7598C55.0306 63.8964 53.4135 64.1289 52.2716 63.2713C48.1331 60.1558 42.6151 58.1976 35.8416 57.4329C37.743 74.2091 47.0068 83.1319 64.0826 84.6768C65.5035 84.8059 66.5523 86.0614 66.4231 87.4823C66.2991 88.8256 65.1728 89.8331 63.8501 89.8331Z" fill="#4361AF"/>
<path d="M64.1497 89.8331C62.827 89.8331 61.7007 88.8256 61.5767 87.4823C61.4475 86.0614 62.4963 84.8059 63.9172 84.6768C80.993 83.1319 90.262 74.2091 92.1582 57.4329C85.3795 58.1976 79.8667 60.1609 75.7282 63.2713C74.5863 64.1341 72.9692 63.9016 72.1115 62.7598C71.2538 61.6179 71.4812 60.0008 72.623 59.1431C78.1823 54.9581 85.6533 52.5659 94.8448 52.0183C95.5578 51.9718 96.3018 52.2456 96.8237 52.7726C97.3455 53.2944 97.6193 54.0178 97.578 54.7514C96.307 76.1414 85.1418 87.9421 64.3873 89.8228C64.3098 89.8331 64.2272 89.8331 64.1497 89.8331Z" fill="#4361AF"/>
</svg>
