<svg width="58" height="58" viewBox="0 0 58 58" fill="none" xmlns="http://www.w3.org/2000/svg">
<path d="M29 4.14286C15.2727 4.14286 4.14288 15.2726 4.14288 29C4.14288 33.4846 5.32773 37.6855 7.40123 41.3146C7.53829 41.5541 7.62611 41.8186 7.65955 42.0925C7.69299 42.3664 7.67136 42.6442 7.59595 42.9096L4.61516 53.389L15.0987 50.4061C15.3641 50.3307 15.6419 50.3091 15.9158 50.3425C16.1897 50.376 16.4542 50.4638 16.6937 50.6009C20.4414 52.7414 24.684 53.8641 29 53.8571C42.7294 53.8571 53.8571 42.7274 53.8571 29C53.8571 15.2726 42.7294 4.14286 29 4.14286ZM2.21186e-05 29C2.21186e-05 12.9837 12.9837 0 29 0C45.0163 0 58 12.9837 58 29C58 45.0163 45.0163 58 29 58C24.0949 58 19.4673 56.7799 15.4114 54.6256L3.96059 57.8819C3.4284 58.0328 2.86559 58.0388 2.33028 57.8995C1.79497 57.7601 1.30657 57.4803 0.915536 57.0891C0.5245 56.6978 0.245 56.2093 0.105905 55.6739C-0.0331903 55.1385 -0.0268375 54.5757 0.124308 54.0436L3.38059 42.5948C1.15516 38.4093 -0.00584391 33.7404 2.21186e-05 29ZM16.5714 22.7857C16.5714 22.2363 16.7897 21.7095 17.1782 21.321C17.5666 20.9325 18.0935 20.7143 18.6429 20.7143H39.3572C39.9065 20.7143 40.4334 20.9325 40.8219 21.321C41.2103 21.7095 41.4286 22.2363 41.4286 22.7857C41.4286 23.3351 41.2103 23.862 40.8219 24.2504C40.4334 24.6389 39.9065 24.8571 39.3572 24.8571H18.6429C18.0935 24.8571 17.5666 24.6389 17.1782 24.2504C16.7897 23.862 16.5714 23.3351 16.5714 22.7857ZM18.6429 33.1429C18.0935 33.1429 17.5666 33.3611 17.1782 33.7496C16.7897 34.138 16.5714 34.6649 16.5714 35.2143C16.5714 35.7637 16.7897 36.2905 17.1782 36.679C17.5666 37.0675 18.0935 37.2857 18.6429 37.2857H31.0714C31.6208 37.2857 32.1477 37.0675 32.5362 36.679C32.9246 36.2905 33.1429 35.7637 33.1429 35.2143C33.1429 34.6649 32.9246 34.138 32.5362 33.7496C32.1477 33.3611 31.6208 33.1429 31.0714 33.1429H18.6429Z" fill="#1480EC" fill-opacity="0.7"/>
</svg>
