<svg width="85" height="74" viewBox="0 0 85 74" fill="none" xmlns="http://www.w3.org/2000/svg">
<path fill-rule="evenodd" clip-rule="evenodd" d="M54.8955 21.326C54.8955 20.922 55.0821 20.5346 55.4142 20.2489C55.7463 19.9632 56.1967 19.8027 56.6663 19.8027H63.7497C64.2193 19.8027 64.6698 19.9632 65.0019 20.2489C65.334 20.5346 65.5205 20.922 65.5205 21.326V24.3726H70.833C71.3027 24.3726 71.7531 24.5331 72.0852 24.8188C72.4173 25.1045 72.6039 25.4919 72.6039 25.8959V35.0357H77.9164V38.0823H72.6039V47.2221C72.6039 47.6261 72.4173 48.0136 72.0852 48.2992C71.7531 48.5849 71.3027 48.7454 70.833 48.7454H65.5205V51.792C65.5205 52.196 65.334 52.5834 65.0019 52.8691C64.6698 53.1548 64.2193 53.3153 63.7497 53.3153H56.6663C56.1967 53.3153 55.7463 53.1548 55.4142 52.8691C55.0821 52.5834 54.8955 52.196 54.8955 51.792V38.0823H30.1038V51.792C30.1038 52.196 29.9173 52.5834 29.5852 52.8691C29.2531 53.1548 28.8027 53.3153 28.333 53.3153H21.2497C20.78 53.3153 20.3296 53.1548 19.9975 52.8691C19.6654 52.5834 19.4788 52.196 19.4788 51.792V48.7454H14.1663C13.6967 48.7454 13.2463 48.5849 12.9142 48.2992C12.5821 48.0136 12.3955 47.6261 12.3955 47.2221V38.0823H7.08301V35.0357H12.3955V25.8959C12.3955 25.4919 12.5821 25.1045 12.9142 24.8188C13.2463 24.5331 13.6967 24.3726 14.1663 24.3726H19.4788V21.326C19.4788 20.922 19.6654 20.5346 19.9975 20.2489C20.3296 19.9632 20.78 19.8027 21.2497 19.8027H28.333C28.8027 19.8027 29.2531 19.9632 29.5852 20.2489C29.9173 20.5346 30.1038 20.922 30.1038 21.326V35.0357H54.8955V21.326ZM23.0205 50.2687H26.5622V22.8493H23.0205V50.2687ZM19.4788 27.4192H15.9372V45.6988H19.4788V27.4192ZM65.5205 45.6988V27.4192H69.0622V45.6988H65.5205ZM61.9789 22.8493V50.2687H58.4372V22.8493H61.9789Z" fill="#1480EC"/>
</svg>
