<svg width="119" height="37" viewBox="0 0 119 37" fill="none" xmlns="http://www.w3.org/2000/svg">
<path d="M26.324 19.202C26.5493 19.202 26.7227 19.306 26.844 19.514C26.9827 19.722 27.052 20.008 27.052 20.372C27.052 21.048 26.8873 21.5853 26.558 21.984C24.842 24.0813 23.0133 25.13 21.072 25.13C19.3907 25.13 18.0473 24.48 17.042 23.18C16.0367 21.88 15.534 20.0167 15.534 17.59C15.534 17.0007 15.56 16.4113 15.612 15.822C14.468 16.03 13.22 16.186 11.868 16.29C10.9667 16.3593 10.3513 16.4027 10.022 16.42C9.67533 18.188 9.19 20.3547 8.566 22.92C8.202 24.428 7.50867 25.182 6.486 25.182C5.37667 25.182 4.822 24.6793 4.822 23.674C4.822 23.4487 4.86533 23.1367 4.952 22.738C5.54133 20.3633 6.00933 18.3527 6.356 16.706L5.108 16.758C4.536 16.758 4.12 16.6627 3.86 16.472C3.6 16.264 3.47 15.9347 3.47 15.484C3.47 14.912 3.63467 14.496 3.964 14.236C4.29333 13.9587 4.83933 13.8027 5.602 13.768L6.98 13.716C7.43067 11.272 7.656 9.40867 7.656 8.126C7.656 7.31133 7.53467 6.75667 7.292 6.462C7.04933 6.16733 6.72867 6.02 6.33 6.02C5.11667 6.02 3.74733 7.034 2.222 9.062C1.99667 9.35667 1.74533 9.504 1.468 9.504C1.22533 9.504 1.01733 9.39133 0.844 9.166C0.670667 8.94067 0.584 8.65467 0.584 8.308C0.584 7.77067 0.800667 7.19867 1.234 6.592C1.99667 5.53467 2.95867 4.668 4.12 3.992C5.28133 3.29867 6.46 2.952 7.656 2.952C8.78267 2.952 9.64933 3.342 10.256 4.122C10.88 4.88467 11.192 6.08067 11.192 7.71C11.192 9.14867 10.984 11.0987 10.568 13.56L13.116 13.43C14.208 13.378 15.144 13.2913 15.924 13.17C16.236 11.2633 16.7127 9.478 17.354 7.814C17.9953 6.15 18.7927 4.798 19.746 3.758C20.6993 2.718 21.7653 2.198 22.944 2.198C23.8107 2.198 24.4953 2.54467 24.998 3.238C25.5007 3.914 25.752 4.80667 25.752 5.916C25.752 10.2147 23.5593 13.196 19.174 14.86C19.122 15.5533 19.096 16.2727 19.096 17.018C19.096 18.838 19.3213 20.1293 19.772 20.892C20.2227 21.6547 20.8553 22.036 21.67 22.036C22.3807 22.036 23.0307 21.854 23.62 21.49C24.2093 21.1087 24.8767 20.4673 25.622 19.566C25.83 19.3233 26.064 19.202 26.324 19.202ZM22.814 4.46C22.4327 4.46 22.0253 4.80667 21.592 5.5C21.176 6.19333 20.7773 7.138 20.396 8.334C20.0147 9.53 19.7113 10.8387 19.486 12.26C20.8727 11.688 21.8953 10.8733 22.554 9.816C23.2127 8.75867 23.542 7.398 23.542 5.734C23.542 5.33533 23.4727 5.02333 23.334 4.798C23.1953 4.57267 23.022 4.46 22.814 4.46ZM27.6252 25.13C26.5506 25.13 25.6926 24.74 25.0512 23.96C24.4099 23.18 24.0892 22.1573 24.0892 20.892C24.0892 19.5053 24.4099 18.1967 25.0512 16.966C25.6926 15.718 26.5419 14.7213 27.5992 13.976C28.6739 13.2133 29.8092 12.832 31.0052 12.832C31.3866 12.832 31.6379 12.91 31.7592 13.066C31.8979 13.2047 32.0106 13.4647 32.0972 13.846C32.4612 13.7767 32.8426 13.742 33.2412 13.742C34.0906 13.742 34.5152 14.0453 34.5152 14.652C34.5152 15.016 34.3852 15.8827 34.1252 17.252C33.7266 19.2453 33.5272 20.632 33.5272 21.412C33.5272 21.672 33.5879 21.88 33.7092 22.036C33.8479 22.192 34.0212 22.27 34.2292 22.27C34.5586 22.27 34.9572 22.062 35.4252 21.646C35.8932 21.2127 36.5259 20.5193 37.3232 19.566C37.5312 19.3233 37.7652 19.202 38.0252 19.202C38.2506 19.202 38.4239 19.306 38.5452 19.514C38.6839 19.722 38.7532 20.008 38.7532 20.372C38.7532 21.0653 38.5886 21.6027 38.2592 21.984C37.5486 22.868 36.7946 23.6133 35.9972 24.22C35.1999 24.8267 34.4286 25.13 33.6832 25.13C33.1112 25.13 32.5826 24.9393 32.0972 24.558C31.6292 24.1593 31.2739 23.622 31.0312 22.946C30.1299 24.402 28.9946 25.13 27.6252 25.13ZM28.5612 22.504C28.9426 22.504 29.3066 22.2787 29.6532 21.828C29.9999 21.3773 30.2512 20.7793 30.4072 20.034L31.3692 15.25C30.6412 15.2673 29.9652 15.5447 29.3412 16.082C28.7346 16.602 28.2492 17.2953 27.8852 18.162C27.5212 19.0287 27.3392 19.9473 27.3392 20.918C27.3392 21.4553 27.4432 21.854 27.6512 22.114C27.8766 22.374 28.1799 22.504 28.5612 22.504ZM50.0041 19.202C50.2294 19.202 50.4028 19.306 50.5241 19.514C50.6628 19.722 50.7321 20.008 50.7321 20.372C50.7321 21.0653 50.5674 21.6027 50.2381 21.984C49.4928 22.9027 48.6868 23.6567 47.8201 24.246C46.9708 24.8353 46.0001 25.13 44.9081 25.13C43.9894 25.13 43.2441 24.8007 42.6721 24.142C41.6841 24.7833 40.6528 25.1127 39.5781 25.13C39.3528 28.4753 38.8414 31.266 38.0441 33.502C37.2468 35.7553 36.0768 36.882 34.5341 36.882C33.5981 36.882 32.9048 36.544 32.4541 35.868C32.0034 35.192 31.7781 34.256 31.7781 33.06C31.7781 31.3613 32.1681 29.3767 32.9481 27.106C33.7281 24.8527 34.9328 22.3653 36.5621 19.644C36.5621 17.1133 36.5448 15.354 36.5101 14.366C36.4928 13.8633 36.6921 13.4647 37.1081 13.17C37.5241 12.8753 38.0441 12.728 38.6681 12.728C39.0321 12.728 39.2921 12.806 39.4481 12.962C39.6214 13.1007 39.7168 13.3867 39.7341 13.82C39.7341 14.2533 39.7428 14.574 39.7601 14.782C40.3148 14.0887 40.8608 13.5947 41.3981 13.3C41.9354 12.988 42.5074 12.832 43.1141 12.832C44.0848 12.832 44.8734 13.222 45.4801 14.002C46.1041 14.782 46.4161 15.8047 46.4161 17.07C46.4161 17.9887 46.2688 18.8813 45.9741 19.748C45.6794 20.6147 45.2721 21.4033 44.7521 22.114C45.1161 22.218 45.4194 22.27 45.6621 22.27C46.2341 22.27 46.7801 22.062 47.3001 21.646C47.8201 21.23 48.4874 20.5367 49.3021 19.566C49.5101 19.3233 49.7441 19.202 50.0041 19.202ZM39.7081 22.634C40.3321 22.4953 40.9041 22.1573 41.4241 21.62C41.9614 21.0653 42.3861 20.3893 42.6981 19.592C43.0101 18.7773 43.1661 17.928 43.1661 17.044C43.1661 16.524 43.0621 16.134 42.8541 15.874C42.6461 15.5967 42.3688 15.458 42.0221 15.458C41.3981 15.458 40.6441 16.1167 39.7601 17.434C39.7428 18.1967 39.7341 19.3147 39.7341 20.788C39.7341 21.5853 39.7254 22.2007 39.7081 22.634ZM34.7421 34.334C35.2101 34.334 35.6001 33.3113 35.9121 31.266C36.2241 29.238 36.4234 26.7073 36.5101 23.674C35.7648 25.4073 35.1754 27.0627 34.7421 28.64C34.3088 30.2173 34.0921 31.5433 34.0921 32.618C34.0921 33.1727 34.1614 33.5973 34.3001 33.892C34.4214 34.1867 34.5688 34.334 34.7421 34.334ZM62.0017 19.202C62.227 19.202 62.4004 19.306 62.5217 19.514C62.6604 19.722 62.7297 20.008 62.7297 20.372C62.7297 21.0653 62.565 21.6027 62.2357 21.984C61.4904 22.9027 60.6844 23.6567 59.8177 24.246C58.9684 24.8353 57.9977 25.13 56.9057 25.13C55.987 25.13 55.2417 24.8007 54.6697 24.142C53.6817 24.7833 52.6504 25.1127 51.5757 25.13C51.3504 28.4753 50.839 31.266 50.0417 33.502C49.2444 35.7553 48.0744 36.882 46.5317 36.882C45.5957 36.882 44.9024 36.544 44.4517 35.868C44.001 35.192 43.7757 34.256 43.7757 33.06C43.7757 31.3613 44.1657 29.3767 44.9457 27.106C45.7257 24.8527 46.9304 22.3653 48.5597 19.644C48.5597 17.1133 48.5424 15.354 48.5077 14.366C48.4904 13.8633 48.6897 13.4647 49.1057 13.17C49.5217 12.8753 50.0417 12.728 50.6657 12.728C51.0297 12.728 51.2897 12.806 51.4457 12.962C51.619 13.1007 51.7144 13.3867 51.7317 13.82C51.7317 14.2533 51.7404 14.574 51.7577 14.782C52.3124 14.0887 52.8584 13.5947 53.3957 13.3C53.933 12.988 54.505 12.832 55.1117 12.832C56.0824 12.832 56.871 13.222 57.4777 14.002C58.1017 14.782 58.4137 15.8047 58.4137 17.07C58.4137 17.9887 58.2664 18.8813 57.9717 19.748C57.677 20.6147 57.2697 21.4033 56.7497 22.114C57.1137 22.218 57.417 22.27 57.6597 22.27C58.2317 22.27 58.7777 22.062 59.2977 21.646C59.8177 21.23 60.485 20.5367 61.2997 19.566C61.5077 19.3233 61.7417 19.202 62.0017 19.202ZM51.7057 22.634C52.3297 22.4953 52.9017 22.1573 53.4217 21.62C53.959 21.0653 54.3837 20.3893 54.6957 19.592C55.0077 18.7773 55.1637 17.928 55.1637 17.044C55.1637 16.524 55.0597 16.134 54.8517 15.874C54.6437 15.5967 54.3664 15.458 54.0197 15.458C53.3957 15.458 52.6417 16.1167 51.7577 17.434C51.7404 18.1967 51.7317 19.3147 51.7317 20.788C51.7317 21.5853 51.723 22.2007 51.7057 22.634ZM46.7397 34.334C47.2077 34.334 47.5977 33.3113 47.9097 31.266C48.2217 29.238 48.421 26.7073 48.5077 23.674C47.7624 25.4073 47.173 27.0627 46.7397 28.64C46.3064 30.2173 46.0897 31.5433 46.0897 32.618C46.0897 33.1727 46.159 33.5973 46.2977 33.892C46.419 34.1867 46.5664 34.334 46.7397 34.334ZM73.9993 19.202C74.2246 19.202 74.3979 19.306 74.5193 19.514C74.6579 19.722 74.7273 20.008 74.7273 20.372C74.7273 21.0653 74.5626 21.6027 74.2333 21.984C73.4879 22.9027 72.6819 23.6567 71.8153 24.246C70.9659 24.8353 69.9953 25.13 68.9033 25.13C67.9846 25.13 67.2393 24.8007 66.6673 24.142C65.6793 24.7833 64.6479 25.1127 63.5733 25.13C63.3479 28.4753 62.8366 31.266 62.0393 33.502C61.2419 35.7553 60.0719 36.882 58.5293 36.882C57.5933 36.882 56.8999 36.544 56.4493 35.868C55.9986 35.192 55.7733 34.256 55.7733 33.06C55.7733 31.3613 56.1633 29.3767 56.9433 27.106C57.7233 24.8527 58.9279 22.3653 60.5573 19.644C60.5573 17.1133 60.5399 15.354 60.5053 14.366C60.4879 13.8633 60.6873 13.4647 61.1033 13.17C61.5193 12.8753 62.0393 12.728 62.6633 12.728C63.0273 12.728 63.2873 12.806 63.4433 12.962C63.6166 13.1007 63.7119 13.3867 63.7293 13.82C63.7293 14.2533 63.7379 14.574 63.7553 14.782C64.3099 14.0887 64.8559 13.5947 65.3933 13.3C65.9306 12.988 66.5026 12.832 67.1093 12.832C68.0799 12.832 68.8686 13.222 69.4753 14.002C70.0993 14.782 70.4113 15.8047 70.4113 17.07C70.4113 17.9887 70.2639 18.8813 69.9693 19.748C69.6746 20.6147 69.2673 21.4033 68.7473 22.114C69.1113 22.218 69.4146 22.27 69.6573 22.27C70.2293 22.27 70.7753 22.062 71.2953 21.646C71.8153 21.23 72.4826 20.5367 73.2973 19.566C73.5053 19.3233 73.7393 19.202 73.9993 19.202ZM63.7033 22.634C64.3273 22.4953 64.8993 22.1573 65.4193 21.62C65.9566 21.0653 66.3813 20.3893 66.6933 19.592C67.0053 18.7773 67.1613 17.928 67.1613 17.044C67.1613 16.524 67.0573 16.134 66.8493 15.874C66.6413 15.5967 66.3639 15.458 66.0173 15.458C65.3933 15.458 64.6393 16.1167 63.7553 17.434C63.7379 18.1967 63.7293 19.3147 63.7293 20.788C63.7293 21.5853 63.7206 22.2007 63.7033 22.634ZM58.7373 34.334C59.2053 34.334 59.5953 33.3113 59.9073 31.266C60.2193 29.238 60.4186 26.7073 60.5053 23.674C59.7599 25.4073 59.1706 27.0627 58.7373 28.64C58.3039 30.2173 58.0873 31.5433 58.0873 32.618C58.0873 33.1727 58.1566 33.5973 58.2953 33.892C58.4166 34.1867 58.5639 34.334 58.7373 34.334ZM85.4248 19.254C85.6502 19.254 85.8235 19.3667 85.9448 19.592C86.0835 19.8 86.1528 20.0687 86.1528 20.398C86.1528 20.7967 86.0922 21.1087 85.9708 21.334C85.8495 21.5593 85.6588 21.7587 85.3988 21.932L80.4068 25.286C79.7482 28.874 78.8815 31.6907 77.8068 33.736C76.7495 35.7987 75.3975 36.83 73.7508 36.83C72.8668 36.83 72.1475 36.5527 71.5928 35.998C71.0382 35.4607 70.7608 34.75 70.7608 33.866C70.7608 33.0513 70.9428 32.2193 71.3068 31.37C71.6882 30.5207 72.3815 29.5413 73.3868 28.432C74.4095 27.34 75.8482 26.0833 77.7028 24.662L77.7808 24.064C77.9022 23.4227 78.0408 22.504 78.1968 21.308C77.8502 22.556 77.3648 23.5093 76.7408 24.168C76.1168 24.8093 75.4582 25.13 74.7648 25.13C73.9848 25.13 73.3435 24.7747 72.8408 24.064C72.3555 23.336 72.1128 22.4347 72.1128 21.36C72.1128 20.06 72.1995 18.8727 72.3728 17.798C72.5462 16.706 72.8322 15.5533 73.2308 14.34C73.4042 13.82 73.6468 13.4473 73.9588 13.222C74.2708 12.9967 74.7648 12.884 75.4408 12.884C75.8222 12.884 76.0822 12.9447 76.2208 13.066C76.3768 13.1873 76.4548 13.3693 76.4548 13.612C76.4548 13.7507 76.3595 14.2187 76.1688 15.016C75.9955 15.6573 75.8568 16.238 75.7528 16.758C75.6142 17.4687 75.4928 18.1533 75.3888 18.812C75.2848 19.4533 75.2328 19.982 75.2328 20.398C75.2328 21.0567 75.4148 21.386 75.7788 21.386C76.0388 21.386 76.3595 21.126 76.7408 20.606C77.1395 20.086 77.5555 19.2973 77.9888 18.24C78.4395 17.1827 78.8728 15.8827 79.2888 14.34C79.4275 13.82 79.6355 13.4473 79.9128 13.222C80.2075 12.9967 80.6408 12.884 81.2128 12.884C81.6115 12.884 81.8888 12.936 82.0448 13.04C82.2008 13.144 82.2788 13.3173 82.2788 13.56C82.2788 13.9933 82.0535 15.484 81.6028 18.032L80.9268 22.218C82.2615 21.2127 83.5615 20.294 84.8268 19.462C85.0522 19.3233 85.2515 19.254 85.4248 19.254ZM74.0368 34.308C74.4702 34.308 74.9555 33.8053 75.4928 32.8C76.0302 31.7947 76.5675 30.122 77.1048 27.782C75.7702 28.9087 74.7995 29.9313 74.1928 30.85C73.6035 31.786 73.3088 32.6007 73.3088 33.294C73.3088 33.5887 73.3608 33.8313 73.4648 34.022C73.5862 34.2127 73.7768 34.308 74.0368 34.308ZM98.4642 19.202C98.6896 19.202 98.8629 19.306 98.9842 19.514C99.1229 19.722 99.1922 20.008 99.1922 20.372C99.1922 21.0653 99.0276 21.6027 98.6982 21.984C97.9009 22.9027 97.0776 23.6567 96.2282 24.246C95.3962 24.8353 94.4429 25.13 93.3682 25.13C92.4842 25.13 91.8169 24.8787 91.3662 24.376C90.9156 23.856 90.6902 23.1107 90.6902 22.14C90.6902 21.6547 90.8116 20.788 91.0542 19.54C91.2796 18.448 91.3922 17.694 91.3922 17.278C91.3922 17.0007 91.2969 16.862 91.1062 16.862C90.8809 16.862 90.5602 17.1567 90.1442 17.746C89.7282 18.318 89.3122 19.0807 88.8962 20.034C88.4802 20.9873 88.1422 21.9927 87.8822 23.05C87.5529 24.4367 86.7382 25.13 85.4382 25.13C84.9182 25.13 84.5716 24.948 84.3982 24.584C84.2422 24.2027 84.1642 23.5267 84.1642 22.556C84.1642 22.0013 84.1729 21.5593 84.1902 21.23L84.2162 19.15C84.2162 16.4807 84.4849 13.6987 85.0222 10.804C85.5769 7.90933 86.3829 5.48267 87.4402 3.524C88.5149 1.548 89.7976 0.559999 91.2882 0.559999C92.0856 0.559999 92.7269 0.906665 93.2122 1.6C93.7149 2.276 93.9662 3.16 93.9662 4.252C93.9662 6.00267 93.4549 7.82267 92.4322 9.712C91.4096 11.584 89.7456 13.7767 87.4402 16.29C87.3882 17.1913 87.3622 18.1187 87.3622 19.072C87.9342 17.5987 88.5669 16.4027 89.2602 15.484C89.9709 14.548 90.6642 13.8807 91.3402 13.482C92.0336 13.0833 92.6662 12.884 93.2382 12.884C94.3649 12.884 94.9282 13.4473 94.9282 14.574C94.9282 15.25 94.7376 16.472 94.3562 18.24C94.0269 19.748 93.8622 20.7447 93.8622 21.23C93.8622 21.9233 94.1136 22.27 94.6162 22.27C94.9629 22.27 95.3702 22.062 95.8382 21.646C96.3236 21.2127 96.9649 20.5193 97.7622 19.566C97.9702 19.3233 98.2042 19.202 98.4642 19.202ZM90.7422 3.134C90.4302 3.134 90.0836 3.58467 89.7022 4.486C89.3209 5.37 88.9482 6.57467 88.5842 8.1C88.2376 9.608 87.9516 11.2547 87.7262 13.04C88.8009 11.7747 89.6849 10.3967 90.3782 8.906C91.0889 7.41533 91.4442 6.06333 91.4442 4.85C91.4442 4.29533 91.3836 3.87067 91.2622 3.576C91.1409 3.28133 90.9676 3.134 90.7422 3.134ZM99.217 25.13C98.437 25.13 97.7957 24.7747 97.293 24.064C96.8077 23.336 96.565 22.4347 96.565 21.36C96.565 20.06 96.6517 18.8727 96.825 17.798C96.9984 16.706 97.2844 15.5533 97.683 14.34C97.8564 13.82 98.099 13.4473 98.411 13.222C98.723 12.9967 99.217 12.884 99.893 12.884C100.274 12.884 100.534 12.9447 100.673 13.066C100.829 13.1873 100.907 13.3693 100.907 13.612C100.907 13.7507 100.812 14.2187 100.621 15.016C100.448 15.6573 100.309 16.238 100.205 16.758C99.8584 18.578 99.685 19.7913 99.685 20.398C99.685 20.762 99.7284 21.022 99.815 21.178C99.9017 21.3167 100.04 21.386 100.231 21.386C100.491 21.386 100.812 21.126 101.193 20.606C101.592 20.086 102.008 19.2973 102.441 18.24C102.892 17.1827 103.325 15.8827 103.741 14.34C103.88 13.82 104.088 13.4473 104.365 13.222C104.66 12.9967 105.093 12.884 105.665 12.884C106.064 12.884 106.341 12.936 106.497 13.04C106.653 13.1267 106.731 13.3 106.731 13.56C106.731 13.9933 106.514 15.1807 106.081 17.122C105.596 19.3407 105.353 20.71 105.353 21.23C105.353 21.5593 105.422 21.8193 105.561 22.01C105.7 22.1833 105.882 22.27 106.107 22.27C106.454 22.27 106.861 22.062 107.329 21.646C107.814 21.2127 108.456 20.5193 109.253 19.566C109.461 19.3233 109.695 19.202 109.955 19.202C110.18 19.202 110.354 19.306 110.475 19.514C110.614 19.722 110.683 20.008 110.683 20.372C110.683 21.0653 110.518 21.6027 110.189 21.984C109.444 22.9027 108.638 23.6567 107.771 24.246C106.922 24.8353 105.951 25.13 104.859 25.13C104.027 25.13 103.412 24.8093 103.013 24.168C102.632 23.5267 102.441 22.6253 102.441 21.464C102.146 22.6427 101.704 23.5527 101.115 24.194C100.526 24.818 99.893 25.13 99.217 25.13ZM113.203 25.13C111.469 25.13 110.204 24.4627 109.407 23.128C108.627 21.7933 108.237 19.8607 108.237 17.33C108.237 15.094 108.514 12.6673 109.069 10.05C109.623 7.41533 110.429 5.17933 111.487 3.342C112.561 1.48733 113.835 0.559999 115.309 0.559999C116.106 0.559999 116.747 0.906665 117.233 1.6C117.718 2.276 117.961 3.16 117.961 4.252C117.961 5.67333 117.692 7.086 117.155 8.49C116.617 9.894 115.725 11.3673 114.477 12.91C115.326 12.9793 116.063 13.2653 116.687 13.768C117.328 14.2707 117.813 14.9207 118.143 15.718C118.489 16.5153 118.663 17.382 118.663 18.318C118.663 19.618 118.403 20.788 117.883 21.828C117.38 22.868 116.713 23.6827 115.881 24.272C115.049 24.844 114.156 25.13 113.203 25.13ZM111.669 14.678C112.813 12.5807 113.723 10.7347 114.399 9.14C115.092 7.528 115.439 6.098 115.439 4.85C115.439 4.29533 115.369 3.87067 115.231 3.576C115.109 3.28133 114.936 3.134 114.711 3.134C114.364 3.134 113.983 3.654 113.567 4.694C113.168 5.71667 112.795 7.112 112.449 8.88C112.102 10.648 111.842 12.5807 111.669 14.678ZM113.307 22.322C113.896 22.322 114.39 22.0013 114.789 21.36C115.205 20.7187 115.413 19.7827 115.413 18.552C115.413 17.5987 115.239 16.8793 114.893 16.394C114.546 15.9087 114.13 15.666 113.645 15.666C113.038 15.666 112.527 15.978 112.111 16.602C111.695 17.226 111.487 18.136 111.487 19.332C111.487 20.372 111.66 21.1347 112.007 21.62C112.353 22.088 112.787 22.322 113.307 22.322Z" fill="white"/>
</svg>
