<svg width="81" height="81" viewBox="0 0 81 81" fill="none" xmlns="http://www.w3.org/2000/svg">
<path d="M40.5001 57.2514C40.021 57.2514 39.5654 57.047 39.2471 56.6886C29.6989 45.9476 29.6989 35.0526 39.2471 24.3116C39.8803 23.5947 41.1166 23.5947 41.7498 24.3116C51.298 35.0526 51.298 45.9476 41.7498 56.6886C41.4348 57.047 40.9792 57.2514 40.5001 57.2514ZM40.5001 28.0204C33.8163 36.4027 33.8163 44.5941 40.5001 52.9765C47.1839 44.5975 47.1839 36.4027 40.5001 28.0204Z" fill="#4361AF"/>
<path d="M40.4027 57.2515C40.3524 57.2515 40.3022 57.2515 40.2519 57.2448C26.7939 56.0253 19.554 48.3733 18.7299 34.5032C18.6997 34.0241 18.8773 33.5584 19.219 33.22C19.554 32.8817 20.0432 32.7209 20.4988 32.7309C26.4556 33.086 31.3034 34.6406 34.9083 37.3509C35.6487 37.9071 35.7961 38.9557 35.24 39.6961C34.6838 40.4332 33.6352 40.5839 32.8948 40.0278C30.2112 38.0076 26.6331 36.7378 22.2409 36.242C23.4738 47.1203 29.4808 52.9062 40.5535 53.9079C41.4748 53.9917 42.1549 54.8058 42.0711 55.7271C41.9907 56.5982 41.2604 57.2515 40.4027 57.2515Z" fill="#4361AF"/>
<path d="M40.5973 57.2514C39.7396 57.2514 39.0093 56.5981 38.9289 55.727C38.8451 54.8057 39.5252 53.9916 40.4465 53.9078C51.5191 52.9061 57.5295 47.1202 58.759 36.2419C54.3635 36.7378 50.7888 38.0109 48.1052 40.0277C47.3648 40.5872 46.3162 40.4364 45.76 39.696C45.2039 38.9556 45.3513 37.907 46.0917 37.3509C49.6966 34.6371 54.5411 33.086 60.5012 32.7308C60.9635 32.7007 61.4459 32.8782 61.7843 33.22C62.1227 33.5584 62.3003 34.0274 62.2735 34.5031C61.4493 48.3732 54.2094 56.0252 40.7514 57.2447C40.7011 57.2514 40.6475 57.2514 40.5973 57.2514Z" fill="#4361AF"/>
</svg>
