<svg width="37" height="38" viewBox="0 0 37 38" fill="none" xmlns="http://www.w3.org/2000/svg">
<path d="M18.5 3.14286C9.7429 3.14286 2.64287 10.2429 2.64287 19C2.64287 21.8609 3.39873 24.5407 4.72148 26.8559C4.80891 27.0087 4.86493 27.1774 4.88626 27.3521C4.9076 27.5268 4.8938 27.7041 4.84569 27.8734L2.94416 34.5585L9.6319 32.6556C9.80123 32.6075 9.97846 32.5937 10.1532 32.6151C10.3279 32.6364 10.4966 32.6924 10.6494 32.7799C13.0402 34.1454 15.7467 34.8616 18.5 34.8571C27.2584 34.8571 34.3571 27.7571 34.3571 19C34.3571 10.2429 27.2584 3.14286 18.5 3.14286ZM1.41102e-05 19C1.41102e-05 8.78271 8.28273 0.5 18.5 0.5C28.7173 0.5 37 8.78271 37 19C37 29.2173 28.7173 37.5 18.5 37.5C15.3709 37.5 12.4188 36.7217 9.83144 35.3474L2.52658 37.4247C2.18708 37.5209 1.82805 37.5248 1.48656 37.4359C1.14507 37.3469 0.833503 37.1685 0.584049 36.9189C0.334595 36.6693 0.156293 36.3576 0.0675599 36.0161C-0.0211731 35.6746 -0.0171204 35.3155 0.0792997 34.9761L2.15658 27.6725C0.736914 25.0025 -0.00372801 22.024 1.41102e-05 19ZM10.5714 15.0357C10.5714 14.6852 10.7107 14.3491 10.9585 14.1013C11.2063 13.8535 11.5424 13.7143 11.8929 13.7143H25.1071C25.4576 13.7143 25.7937 13.8535 26.0415 14.1013C26.2894 14.3491 26.4286 14.6852 26.4286 15.0357C26.4286 15.3862 26.2894 15.7223 26.0415 15.9701C25.7937 16.2179 25.4576 16.3571 25.1071 16.3571H11.8929C11.5424 16.3571 11.2063 16.2179 10.9585 15.9701C10.7107 15.7223 10.5714 15.3862 10.5714 15.0357ZM11.8929 21.6429C11.5424 21.6429 11.2063 21.7821 10.9585 22.0299C10.7107 22.2777 10.5714 22.6138 10.5714 22.9643C10.5714 23.3148 10.7107 23.6509 10.9585 23.8987C11.2063 24.1465 11.5424 24.2857 11.8929 24.2857H19.8214C20.1719 24.2857 20.508 24.1465 20.7558 23.8987C21.0036 23.6509 21.1429 23.3148 21.1429 22.9643C21.1429 22.6138 21.0036 22.2777 20.7558 22.0299C20.508 21.7821 20.1719 21.6429 19.8214 21.6429H11.8929Z" fill="#FEFEFE"/>
</svg>
