<svg width="31" height="32" viewBox="0 0 31 32" fill="none" xmlns="http://www.w3.org/2000/svg">
<path d="M19.3126 0.881348C17.5517 0.882927 15.8162 1.30093 14.2477 2.10123C12.6792 2.90153 11.3222 4.06143 10.2875 5.48623C9.25287 6.91104 8.56983 8.56035 8.2942 10.2995C8.01856 12.0386 8.15815 13.8183 8.70156 15.4932L0.673245 23.5202C0.569676 23.6239 0.487551 23.7469 0.43156 23.8824C0.375568 24.0178 0.346809 24.1629 0.346924 24.3095V29.8876C0.346924 30.1835 0.464463 30.4672 0.673683 30.6765C0.882903 30.8857 1.16667 31.0032 1.46255 31.0032H7.04068C7.33656 31.0032 7.62032 30.8857 7.82954 30.6765C8.03876 30.4672 8.1563 30.1835 8.1563 29.8876V27.6563H10.3876C10.6834 27.6563 10.9672 27.5388 11.1764 27.3296C11.3856 27.1204 11.5032 26.8366 11.5032 26.5407V24.3095H13.7344C13.881 24.3096 14.0261 24.2808 14.1615 24.2248C14.297 24.1688 14.42 24.0867 14.5237 23.9832L15.8569 22.6486C17.3902 23.1464 19.0132 23.306 20.6141 23.1164C22.2151 22.9268 23.7559 22.3925 25.1305 21.5503C26.5051 20.708 27.6808 19.5779 28.5768 18.2377C29.4727 16.8974 30.0675 15.379 30.3203 13.7868C30.573 12.1946 30.4777 10.5666 30.0409 9.01478C29.6041 7.46298 28.8362 6.02427 27.79 4.79773C26.7438 3.57119 25.4443 2.58595 23.9808 1.90986C22.5173 1.23376 20.9247 0.882871 19.3126 0.881348ZM22.1016 11.4798C21.6603 11.4798 21.2289 11.3489 20.862 11.1038C20.4951 10.8586 20.2091 10.5101 20.0402 10.1024C19.8713 9.69469 19.8271 9.24606 19.9132 8.81324C19.9993 8.38042 20.2118 7.98285 20.5239 7.6708C20.8359 7.35876 21.2335 7.14625 21.6663 7.06016C22.0991 6.97406 22.5478 7.01825 22.9555 7.18713C23.3632 7.35601 23.7117 7.64199 23.9568 8.00892C24.202 8.37585 24.3329 8.80724 24.3329 9.24854C24.3329 9.8403 24.0978 10.4078 23.6793 10.8263C23.2609 11.2447 22.6934 11.4798 22.1016 11.4798Z" fill="white"/>
</svg>
