<svg width="24" height="24" viewBox="0 0 24 24" fill="none" xmlns="http://www.w3.org/2000/svg">
<path d="M4.24323 12.0013L0.0654273 1.2596C-0.224988 0.512722 0.503512 -0.202163 1.22463 0.0525377L1.33907 0.100525L23.4894 11.1745C23.6323 11.2458 23.7542 11.353 23.8432 11.4855C23.9322 11.618 23.9853 11.7714 23.9974 11.9306C24.0094 12.0897 23.9799 12.2493 23.9118 12.3937C23.8437 12.5381 23.7393 12.6624 23.6088 12.7544L23.4894 12.8257L1.33907 23.8997C0.621647 24.2577 -0.158537 23.5982 0.0285101 22.8563L0.0654273 22.7394L4.24323 12.0013ZM2.65333 2.82226L5.86513 11.0785H14.0202C14.2432 11.0785 14.4587 11.1593 14.6267 11.3058C14.7948 11.4524 14.9041 11.6549 14.9345 11.8758L14.9431 12.0013C14.943 12.2245 14.8621 12.4401 14.7152 12.6082C14.5684 12.7763 14.3656 12.8855 14.1444 12.9155L14.0202 12.9242H5.86267L2.6521 21.1804L21.0135 12.0013L2.65333 2.82226Z" fill="white"/>
</svg>
