<svg width="34" height="34" viewBox="0 0 34 34" fill="none" xmlns="http://www.w3.org/2000/svg">
<path d="M12.3483 34L11.6716 28.56C11.3051 28.4183 10.9595 28.2483 10.6347 28.05C10.31 27.8517 9.99307 27.6392 9.68408 27.4125L4.65174 29.5375L0 21.4625L4.35572 18.1475C4.32753 17.9492 4.31343 17.7576 4.31343 17.5729V16.4271C4.31343 16.2424 4.32753 16.0508 4.35572 15.8525L0 12.5375L4.65174 4.4625L9.68408 6.5875C9.9942 6.36083 10.3184 6.14833 10.6567 5.95C10.995 5.75167 11.3333 5.58167 11.6716 5.44L12.3483 0H21.6517L22.3284 5.44C22.6949 5.58167 23.0405 5.75167 23.3653 5.95C23.6901 6.14833 24.0069 6.36083 24.3159 6.5875L29.3483 4.4625L34 12.5375L29.6443 15.8525C29.6725 16.0508 29.6866 16.2424 29.6866 16.4271V17.5729C29.6866 17.7576 29.6584 17.9492 29.602 18.1475L33.9577 21.4625L29.306 29.5375L24.3159 27.4125C24.0058 27.6392 23.6816 27.8517 23.3433 28.05C23.005 28.2483 22.6667 28.4183 22.3284 28.56L21.6517 34H12.3483ZM17.0846 22.95C18.7197 22.95 20.1153 22.3692 21.2711 21.2075C22.427 20.0458 23.005 18.6433 23.005 17C23.005 15.3567 22.427 13.9542 21.2711 12.7925C20.1153 11.6308 18.7197 11.05 17.0846 11.05C15.4212 11.05 14.0184 11.6308 12.876 12.7925C11.7337 13.9542 11.1631 15.3567 11.1642 17C11.1642 18.6433 11.7348 20.0458 12.876 21.2075C14.0172 22.3692 15.4201 22.95 17.0846 22.95ZM17.0846 19.55C16.3798 19.55 15.7804 19.3018 15.2865 18.8054C14.7925 18.309 14.5461 17.7072 14.5473 17C14.5473 16.2917 14.7942 15.6893 15.2882 15.1929C15.7821 14.6965 16.3809 14.4489 17.0846 14.45C17.7894 14.45 18.3888 14.6982 18.8827 15.1946C19.3766 15.691 19.623 16.2928 19.6219 17C19.6219 17.7083 19.3749 18.3107 18.881 18.8071C18.3871 19.3035 17.7883 19.5511 17.0846 19.55ZM15.3085 30.6H18.6493L19.2413 26.095C20.1153 25.8683 20.9261 25.5351 21.6737 25.0954C22.4214 24.6557 23.1048 24.1247 23.7239 23.5025L27.9104 25.245L29.5597 22.355L25.9229 19.5925C26.0638 19.1958 26.1625 18.7782 26.2189 18.3396C26.2753 17.901 26.3035 17.4545 26.3035 17C26.3035 16.5467 26.2753 16.1007 26.2189 15.6621C26.1625 15.2235 26.0638 14.8053 25.9229 14.4075L29.5597 11.645L27.9104 8.755L23.7239 10.54C23.1037 9.88833 22.4203 9.3432 21.6737 8.9046C20.9272 8.466 20.1164 8.1328 19.2413 7.905L18.6915 3.4H15.3507L14.7587 7.905C13.8847 8.13167 13.0745 8.46487 12.328 8.9046C11.5814 9.34433 10.8975 9.8753 10.2761 10.4975L6.08955 8.755L4.4403 11.645L8.07711 14.365C7.93615 14.79 7.83748 15.215 7.7811 15.64C7.72471 16.065 7.69652 16.5183 7.69652 17C7.69652 17.4533 7.72471 17.8925 7.7811 18.3175C7.83748 18.7425 7.93615 19.1675 8.07711 19.5925L4.4403 22.355L6.08955 25.245L10.2761 23.46C10.8964 24.1117 11.5803 24.6574 12.328 25.0971C13.0756 25.5368 13.8859 25.8695 14.7587 26.095L15.3085 30.6Z" fill="white"/>
</svg>
